<?xml version="1.0" encoding="iso-8859-1"?>
<!-- Generator: Adobe Illustrator 16.0.0, SVG Export Plug-In . SVG Version: 6.00 Build 0)  -->
<!DOCTYPE svg PUBLIC "-//W3C//DTD SVG 1.1//EN" "http://www.w3.org/Graphics/SVG/1.1/DTD/svg11.dtd">
<svg version="1.1" id="Layer_1" xmlns="http://www.w3.org/2000/svg" xmlns:xlink="http://www.w3.org/1999/xlink" x="0px" y="0px"
	 width="36px" height="36px" viewBox="0 0 36 36" style="enable-background:new 0 0 36 36;" xml:space="preserve">
<g>
	<path style="fill-rule:evenodd;clip-rule:evenodd;fill:#010101;" d="M26.555,18.511c7.988,0.103,6.76-3.789,6.76-3.789
		c-1.467,3.815-12.58,0.243-15.672-0.836c2.166-0.259,5.93-0.026,5.93-0.026c-4.908-1.36-8.695-0.664-10.029-0.325
		c-0.016,0.003-0.027,0.007-0.043,0.01c-0.313,0.08-0.484,0.139-0.484,0.139l0.014,0.004c-3.129,1.027-2.658,4.62-2.658,4.62
		l-1.229-0.513c2.355,4.507-2.049,12.394-2.049,12.394l-1.33,0.512h13.725c-3.482,0-3.791-6.657-3.791-6.657
		c0.922-5.121,4.541-1.536,4.541-1.536c4.217,3.431,4.172-2.959,3.756-1.332c-0.615,2.407-2.436,0.858-2.436,0.858
		c-0.564-0.541-1.139-0.908-1.689-1.174c1.348-0.291,0.584-1.909,0.725-1.016c0.15,0.957-1.646,0.649-1.646,0.649l0.023,0.017
		c-1.443-0.425-2.557-0.154-2.557-0.154c-1.023,0-1.33-1.639-1.33-1.639C15.492,14.619,18.566,18.408,26.555,18.511z"/>
	<path style="fill-rule:evenodd;clip-rule:evenodd;fill:#010101;" d="M20.594,8.406c-2.666-0.509-3.67,0.152-4.445,3.048
		C18.254,12.256,19.254,11.547,20.594,8.406z"/>
	<path style="fill-rule:evenodd;clip-rule:evenodd;fill:#010101;" d="M28.34,26.883c-0.246,2.24,0.691,3.029,4.066,3.538
		C32.229,27.713,31.338,26.906,28.34,26.883z"/>
	<path style="fill-rule:evenodd;clip-rule:evenodd;fill:#010101;" d="M31.906,20.918c-0.096,0.859,0.264,1.162,1.559,1.357
		C33.396,21.236,33.055,20.928,31.906,20.918z"/>
	<path style="fill-rule:evenodd;clip-rule:evenodd;fill:#010101;" d="M26.961,11.662c-0.066-1.039-0.41-1.348-1.559-1.357
		C25.309,11.164,25.666,11.467,26.961,11.662z"/>
	<path style="fill-rule:evenodd;clip-rule:evenodd;fill:#010101;" d="M29.787,11.139c-0.795-0.34-1.189-0.084-1.75,1.101
		C29.051,12.475,29.445,12.236,29.787,11.139z"/>
	<path style="fill-rule:evenodd;clip-rule:evenodd;fill:#010101;" d="M29.246,20.918c1.014-0.245,1.258-0.635,1.068-1.769
		C29.453,19.204,29.217,19.609,29.246,20.918z"/>
</g>
</svg>
